<svg xmlns="http://www.w3.org/2000/svg" xmlns:xlink="http://www.w3.org/1999/xlink" width="30" height="30" viewBox="0 0 30 30">
  <defs>
    <clipPath id="clip-아트보드_2">
      <rect width="30" height="30"/>
    </clipPath>
  </defs>
  <g id="아트보드_2" data-name="아트보드 – 2" clip-path="url(#clip-아트보드_2)">
    <rect width="30" height="30" fill="rgba(255,255,255,0)"/>
    <g id="IMAGE_확인_표시" data-name="IMAGE 확인 표시" transform="translate(-597 -1918)">
      <path id="패스_2062" data-name="패스 2062" d="M0,0H30V30H0Z" transform="translate(597 1918)" fill="#fff" opacity="0"/>
      <g id="패스_2063" data-name="패스 2063" transform="translate(602 1923)" fill="none">
        <path d="M10,0A10,10,0,1,1,0,10,10,10,0,0,1,10,0Z" stroke="none"/>
        <path d="M 10 3 C 6.140190124511719 3 3 6.140190124511719 3 10 C 3 13.85980987548828 6.140190124511719 17 10 17 C 13.85980987548828 17 17 13.85980987548828 17 10 C 17 6.140190124511719 13.85980987548828 3 10 3 M 10 0 C 15.52285003662109 0 20 4.477149963378906 20 10 C 20 15.52285003662109 15.52285003662109 20 10 20 C 4.477149963378906 20 0 15.52285003662109 0 10 C 0 4.477149963378906 4.477149963378906 0 10 0 Z" stroke="none" fill="#5bce52"/>
      </g>
    </g>
  </g>
</svg>
